/* XPM */
static char *e48b122e696249688cd2bf524e49061fa0Fn8kyRxq05Hasj[] = {
/* columns rows colors chars-per-pixel */
"64 64 256 2 ",
"   c #040101",
".  c #0C0201",
"X  c #0D0903",
"o  c #050509",
"O  c #0C080A",
"+  c #130201",
"@  c #1A0201",
"#  c #140B02",
"$  c #1B0C02",
"%  c #130A0B",
"&  c #18080B",
"*  c #161001",
"=  c #1C1201",
"-  c #1B120C",
";  c #1A1807",
":  c #0E0B12",
">  c #160C13",
",  c #1C1313",
"<  c #1C1719",
"1  c #240201",
"2  c #2B0202",
"3  c #230B02",
"4  c #2A0C03",
"5  c #280A0A",
"6  c #330201",
"7  c #3B0201",
"8  c #390A06",
"9  c #221402",
"0  c #2A1303",
"q  c #231903",
"w  c #23140B",
"e  c #24190B",
"r  c #2B180A",
"t  c #361806",
"y  c #231D1B",
"u  c #291C1B",
"i  c #261915",
"p  c #361B17",
"a  c #290F16",
"s  c #3A2507",
"d  c #393204",
"f  c #28221C",
"g  c #372617",
"h  c #352B0E",
"j  c #1C1B22",
"k  c #221E23",
"l  c #2A1C23",
"z  c #351D24",
"x  c #232225",
"c  c #2B2A2B",
"v  c #292427",
"b  c #372928",
"n  c #3A352B",
"m  c #2E2E32",
"M  c #352F33",
"N  c #2F3033",
"B  c #333134",
"V  c #3C3433",
"C  c #3B3639",
"Z  c #2E302E",
"A  c #440402",
"S  c #4B0301",
"D  c #470907",
"F  c #540202",
"G  c #5B0302",
"H  c #570909",
"J  c #47160B",
"K  c #571702",
"L  c #481A18",
"P  c #501013",
"I  c #670707",
"U  c #760604",
"Y  c #671509",
"T  c #452A04",
"R  c #582602",
"E  c #4E3303",
"W  c #573604",
"Q  c #452619",
"!  c #4A3719",
"~  c #5D3717",
"^  c #572818",
"/  c #643C06",
"(  c #763502",
")  c #6F2D0A",
"_  c #562526",
"`  c #47352C",
"'  c #593928",
"]  c #433C3B",
"[  c #453937",
"{  c #4D2C31",
"}  c #673438",
"|  c #761E2C",
" . c #3C413B",
".. c #52441C",
"X. c #794807",
"o. c #7B5500",
"O. c #724711",
"+. c #47433C",
"@. c #55463A",
"#. c #534528",
"$. c #684A3B",
"%. c #6B542D",
"&. c #716334",
"*. c #3E3B42",
"=. c #473D43",
"-. c #683E4B",
";. c #3D4142",
":. c #4C4C4B",
">. c #494546",
",. c #524C4C",
"<. c #564746",
"1. c #4A514C",
"2. c #59514B",
"3. c #564D52",
"4. c #4E5252",
"5. c #595555",
"6. c #4E4C51",
"7. c #684645",
"8. c #675959",
"9. c #775856",
"0. c #714952",
"q. c #726655",
"w. c #655B65",
"e. c #785566",
"r. c #6A6666",
"t. c #756868",
"y. c #74736C",
"u. c #786A78",
"i. c #7A7776",
"p. c #6E637B",
"a. c #5D5E60",
"s. c #880300",
"d. c #930506",
"f. c #991409",
"g. c #9D2306",
"h. c #A13110",
"j. c #844C04",
"k. c #895405",
"l. c #955905",
"z. c #925813",
"x. c #B44D0E",
"c. c #9A630E",
"v. c #A96904",
"b. c #B46D05",
"n. c #BB7502",
"m. c #B97606",
"M. c #A76816",
"N. c #B47418",
"B. c #B06F12",
"V. c #8A5527",
"C. c #8B652D",
"Z. c #B2782C",
"A. c #C37C04",
"S. c #C57C0A",
"D. c #C37612",
"F. c #C86A2A",
"G. c #913546",
"H. c #894952",
"J. c #8E7351",
"K. c #847A78",
"L. c #907270",
"P. c #A35C67",
"I. c #BE8119",
"U. c #9A823A",
"Y. c #CB8306",
"T. c #CC840B",
"R. c #C88208",
"E. c #D48B0C",
"W. c #D98E0C",
"Q. c #D58807",
"!. c #DD920C",
"~. c #C88417",
"^. c #D48C12",
"/. c #DB8D12",
"(. c #D98D18",
"). c #DC9215",
"_. c #DD941A",
"`. c #E5960A",
"'. c #F6990C",
"]. c #E39513",
"[. c #E2961A",
"{. c #E49A1C",
"}. c #EB9B1C",
"|. c #EA9816",
" X c #F49E18",
".X c #E28E14",
"XX c #EAA319",
"oX c #F8A219",
"OX c #EEA50A",
"+X c #C78626",
"@X c #D48E2B",
"#X c #E69C23",
"$X c #EB9D22",
"%X c #E79D2A",
"&X c #F49D21",
"*X c #ECA32C",
"=X c #EEA324",
"-X c #F4A324",
";X c #FBA522",
":X c #F3A52B",
">X c #FBAC2B",
",X c #F8A929",
"<X c #EDA433",
"1X c #EFA834",
"2X c #F3AB34",
"3X c #FBAD33",
"4X c #F3AC3C",
"5X c #FAAD3B",
"6X c #F7A632",
"7X c #FAB13C",
"8X c #F7B13A",
"9X c #F4BA29",
"0X c #DEA405",
"qX c #FAC716",
"wX c #F3C228",
"eX c #958452",
"rX c #B28A49",
"tX c #8F847C",
"yX c #B0896F",
"uX c #F6AF41",
"iX c #F6B043",
"pX c #FAB244",
"aX c #F6B54A",
"sX c #FAB54B",
"dX c #FAB84E",
"fX c #FBB950",
"gX c #FCB552",
"hX c #D5AE6A",
"jX c #F0B06A",
"kX c #D59859",
"lX c #FFCB75",
"zX c #7A7382",
"xX c #877982",
"cX c #987383",
"vX c #A47C84",
"bX c #898488",
"nX c #988889",
"mX c #9C9796",
"MX c #9B8D91",
"NX c #A69495",
"BX c #AA8F90",
"VX c #B1A59A",
"CX c #B19CA4",
"ZX c #B8A7AC",
"AX c #B9B6B5",
"SX c #B2AAAE",
"DX c #CD958F",
"FX c #E8B694",
"GX c #C6B1AB",
"HX c #E0B0A8",
"JX c #D5C9B5",
"KX c #EBC8B5",
"LX c #E8CD9E",
"PX c #C4B9C1",
"IX c #BFC1C0",
"UX c #EBD5C9",
/* pixels */
"q 0 q 9 q ; = = = = = 9 9 q q q q q q t t t s T T T E W W / / O.X.o.o.o.k.z.c.v.v.v.v.b.S.A.T.T.^.(./.`.'.`.'.'.oXoX;X;XoX;X;X>X",
"0 q q 9 9 9 = = = = = = 9 9 q 0 ; ; q s t t t T T T E E W W / O.X.X.o.k.z.k.l.l.v.v.b.m.A.Y.R.~.~._.).`.`.`.'.OXoX&X;X;X;X;X;X>X",
"0 q 9 9 9 = = = * = = = = 9 9 0 r g r 0 q r s d T E T E E E W O.X.X.X.j.k.k.l.l.v.v.b.v.A.D.Z.N.+X~./.!.'. X`. XoX;X;X;X>X;X>X>X",
"q 0 9 = = = * = = # = = = = 9 9 9 ` 9.[ ` r r s s T T T E O.W / / X.X.j.k.k.l.l.l.l.B.N.B.M.Z.jXlX%X(.!.`.`. XoX&X;X,X,X>X;X>X>X",
"9 9 9 = = 9 = * $ = = = 9 = 9 9 r p [ r.i.tX@.h T s T W E E / / ( O.o.k.k.k.l.l.l.M.C.C.C.P.HXFXlX~.~.).|.`.|.}.&X-X-X>X;X>X>X9X",
"9 9 9 = = = = # = $ = = $ 9 9 9 0 p g [ 2.y.VXtXg Q T T ! W E W R R W / X.j.k.z.z.C.&.J.L.CXcXvXjX~.^.).!.|. X}.-X-X:X>X>X>X3X3X",
"9 9 = 9 = = = = * = = = = 9 9 9 9 p g f +.5.i.GXNXh ! Q t t 2 1 2 1 2 2 D R ( V.%.&.t.K.GXBXH.HXjX^.(.).!.`.XX$X-X:X>X2X3X3X3X3X",
"9 9 = = = $ $ = = # $ $ = = 3 9 9 r ` r f +.5.i.AXtXh @ 4 1 2 1 2 2 2 6 7 7 8 ! q.y.y.mXZX-.P.HXkX/.^./.|.].}.&X:X:X>X9X3X3X3X7X",
"9 9 = = = * # * = # # = = 9 9 9 9 r b u i v ,.5.i.GXt.i 1 2 1 2 2 2 6 6 6 2 Q 0.t.y.nXGXH.} P.FX+X^.E.!.`.|.}.&X&X:X2X3X3X5X7XpX",
"= 9 = = = = = $ = = * = = = 9 = ; 9 g ` w u b 3.5.t.MXBXa 1 2 1 2 6 6 6 7 _ 0.t.r.bXCXe.0.H.yXkX+XT.Q.!.`.].}.}.:X:X2X3X3X5XpXpX",
"9 9 = = = # * * * * = = = = 9 = 9 r i b b >.8.=.2.8.8.+.3 5 1 6 2 2 6 D S P } 9.u.xXw.cXL.P.yXrXI.R.Q.Q.!.`.}.$X$X:X6X3X5XuXpXpX",
"9 = = = = = * # # * * = 9 = 9 9 9 e e +.t.L.t.<.b ` w . @ 1 1 1 1 2 7 A F S A _ 9.u.xXNXBXGXyXrXI.Y.Q.Q.!.].}.$X:X:X2X3X5XuXpXsX",
"= 9 $ $ = = * * * * * = = 9 9 9 9 r u g @.[ 5 & $ g w @ @ @ 2 2 1 2 D S F H S S P $.L.cXCXCXLXhXI.T.Q.W.!.].{.$X-X2X2X8X5XpXpXsX",
"9 $ = = # = * * * # = = = = = 9 r = r f ` i . 3 5 p 0 @ 1 1 1 1 2 2 S H G F G F G S $.nXCXUXhXM.m.R.Q.W.!.].}.$X*X*X,X2X5X7XpXsX",
"9 = $ $ = # - * * = = * $ = 9 = = q e e b @ @ $ 1 0 p 1 1 1 1 1 2 7 S F F F F S F F D L L.yXZ.N.m.Y.Y.E.).].#X=X*X*X2X9X7X7XpXsX",
"= - $ = - # # * % * $ - = - 9 ; q 9 e e + # $ $ 3 1 _ $.1 @ 1 1 1 2 H F G I F H G G H S D O.M.m.I.R.Y.E.W.).{.$X*X*X2X3X8XpXpXsX",
", , , , a k y < x k x x u x j y < f < #   . * $ @ 4 0 9.q.g r 2 2 6 P H F Y H G F G I S A V.N.n.n.Y.Y.Y.!.).{.#X=X*X6X8XiXpXsXdX",
"< < k k k k k k j x x x x x x x f f :       % # 4 1 9.<.- b @ 1 1 2 8 _ S K Y Y F F H F S ) B.n.A.Y.Y.Y.^.).{.XX=X2X4X4XiXpXpXdX",
"< < < < j j j k x j j j k x x k v k     O   + # 3 4 g MXNXn 0 1 5 @ w 4 ^ A K P D A K H G ) v.b.n.Y.Y.E.!.)._.=X*X1X2XuX7XsXdXdX",
"y k k k k k x c x x c x x x v m c < O   O   + $ 4 a p i t.q.h t 5 + . + Q 6 7 J D 7 H H G U B.n.n.I.R.T.^.).].$X*X*X2XuXpXpXdXdX",
"< f c Z m m B N N B N m M M M C c > %       X # $ $ { nXV = h @.[ ] ` b a J 8 6 6 D D H S Y v.b.n.I.R.R.^.).[.{.=X1X4X4XiXsXdXdX",
"f x c c c m m m N N B *.*.*.M M C % O % X X . # + w - V NXq.n ..2.8.[ a g ' ' p g Q A D 7 K M.b.n.A.R.R.E.).[.#X%X*X4XuXpXaXdXfX",
"c v c c c c c Z B B B Z m ] 5.r.>.> . X X   . % $ $ + i C AX@. .5.5.n Z +.` Q 2 9 1 6 S A R M.v.b.A.Y.R.^./._.{.*X<X4X4XiXsXfXfX",
"v c c c c Z Z Z Z c n ] ,.,.<.] M , . X # % O # % $ # # # +.` n ,.5.:.[ b L L L ` 9 6 A A K c.b.n.n.R.R.^.).[.#X$X<X4X4XpXsXfXfX",
"c v c c c v c Z  .+. .f # - $ # - - # . . > > . + - - # [ <.y C 4.3.3.{ P G.G.| 9.' 2 7 7 R c.b.n.n.R.Y.^.)._.#X*X*X4X4XiXsXaXfX",
"c v c x c Z C +.n f X * ; $ $ q ; e # . . . & O % + # $ u MX5.B 1.4.3.8.0.P.G.G.} { 8 7 7 R M.v.n.n.I.Y.^.^._.{.%X<X1XiXiXaXfXfX",
"j N B ;.>.V v - . X # = $ 9 = 9 9 q # . . O > l , # # # i b xXN >.1.5.r.L.vXvXH.q.7.6 7 7 K c.v.b.n.I.Y.T.^._.{.$X*X4X4XuXaXgXfX",
"< < : o     . . . + . + $ 9 9 $ = = X . + + u [ u . 9 9 w @ c N >.1.4.4.t.t.r.e.nX7.1 7 A K z.b.b.n.I.I.^.^._.{.$X<X1XuXiXaXfXfX",
": o     o . . . + + @ $ $ @ $ 9 9 = + . + . , V V # # $ g r b v >.6.4.;.C C ,.t.xX7.1 6 7 K z.B.b.n.I.Y.T.^._.{.%X*X1XuXiXaXaXfX",
"          . + & + @ @ + + 3 5 9 9 + . + + + + i =.% @ 0 Q Q u v =.6.5.>.C :.r.y.NX{ 2 2 6 D j.v.b.m.I.Y.^.^.).{.#X<X1X4XiXaXaXfX",
"o       . . + + @ @ @ @ @ + @ w $ + . . + + + & =.> 3 @ Q ! [ b C 3.6.4.5.w.r.K.CX{ 2 6 7 D ( B.b.n.n.Y.T.^.).{.#X%X1XuXiXaXaXfX",
"  o   . . . + + @ @ @ @ @ @ @ @ @ . + & + @ + & M % @ 3 0 #.GXc ] :.=.a.3.5.u.nXZXz 5 6 7 A ( M.b.n.n.Y.R.^.).{.%X%X1X4XiXaXaXfX",
"X . . . . . + . + @ @ @ @ @ 1 & + + + + @ + + w e = e = q eXJXn  .>.3.3.5.a.zXCXCXa 6 6 A S ) M.b.n.A.A.Q.W.).[.%X*X<XuXiXiXaXgX",
"# # . . . . . + + + @ @ @ @ @ & + + + + @ + + $ e ; e h &.JXVXh >.>.3.>.4.r.bXIXe.5 6 7 A A K z.B.n.A.A.Y.E.!.[.%X%X<XuXiXiXgXaX",
"# $ # . . . . + + + @ @ @ @ @ + + . + @ + + + # $ w ; h q.yX .n +.:.C >.a.i.mXbXa @ 8 6 D A H j.B.n.A.A.T.^.^.[.%X<X<X4XiXaXaXfX",
"# # # + . . . . + + + + @ + + + . + + @ + + + + + - ; ; q.AX2.B >.:.:.w.y.bXy.> @ 2 D 6 A A D ( B.b.A.S.S.^./.[.%X%X<X4X4XiXaXgX",
"$ # # # X . . . + + + + + + + + . + + + + + @ + + + u - q.UXi.Z B :.a.u.i.r.y   1 4 D 6 6 D A K M.n.A.D.S.(.(.[.#X%X1X1X2X8XdXfX",
"# # X # # # X . . + + . + + . . . + # # + @ # @ + > i V q.AXmX4.M 5.i.u.4.C i # 1 6 8 6 2 7 D S l.B.D.S.S.(.(.[.#X%X1X2X2X8XaXgX",
"# * # # X # X + . + + . . . . . + @ $ # # @ 1 @ + > u f c mXw.:.C u.bX6.V >.i + 2 6 L 6 2 7 A S ( N.D.S.^./.(..X#X#X<X2X2X7XaXgX",
"* # # X # X # # . . . . . .   . + $ # $ @ @ 3 @ & l f X : nXu.*.=.:.6.;.=.3.i @ 1 6 J 2 2 D A F Y B.D.A.S./..X.X{.$X*X2X2X4XsXgX",
"# X X # X # X # # # . . . O     % + e + $ 3 4 @ a z < ; : y.nXC >.>.1.C =.3.z 1 6 8 J 2 6 7 7 S H z.D.S.S.S..X[.$X$X*X<X4XiXpXsX",
"* # X X + X % # % # # . .       $ $ p @ 3 3 4 1 z l , , X 5.NX[ >.>.1. .,.8.z 2 2 J L 6 P D S 7 S ) D.D.S..X(..X$X$X*X2X4X8XpXpX",
"# # # # # X X # # + + # .     . $ w g $ 3 0 4 r b a # ; X  .VX>.+.4.1. .8.3.0 4 J J ' L P H F _ J D M.D.Q.`..X.X}.$X%X6X4XiXpXsX",
"# # X # # # . # # + # % # . X # w r u 3 3 r 5 g V > X < * c VX5.+.1. .1.w.Q 4 8 J ^ $.L H G P DXKXyXj.(.S.S.Q.|.}.#X%X6X4X8XpX7X",
"# # X # . # + # @ # $ = * # - i ; h r 4 4 s r b M O . i - e MXq.>.:.1.2.@.t t J ~ ' @.L H G _ vXDXKXFXrXI.T.).].{.$X=X2X4XuXiX7X",
"# # X . # . . # $ # $ $ = # - e = g h 0 4 s i [ M O   < - = K.K.] 4.1.,.b s J W %.$.L._ H I } CXZXCXKXFXZ.(.).].}.}.=X*X2X4X7X7X",
"# # . # + X # # $ $ $ $ $ = = ; = h 0 9 8 ! g V c o o < i - 8.K.V C +.[ Q T E %.~ $.L._ H I -.MXZXZXZXKX+X+XQ..X[.&X=X=X1X5X7X7X",
"= # # X # # # $ $ $ 9 ; 9 9 ; 9 ; h # 0 s #.b C x o   x u , 2.K.[ [ 5.` T ~ C.C.8 9.tX' H H e.cXAXZXGXKXhX+X^.`.[.{.-X-X6X5X7X5X",
"$ # + X X * * * = = = 9 = = 9 9 4 h + 0 q #.b C j o o < l i +.K.2.2.@.! X.C.eXE . 8.cX-.D P e.zXCXIXAXIXFX+X@X`.].}.oX:X6X5X5XuX",
"$ # + # X * * * = q 9 9 0 9 9 9 @ 0 + q d ..n *.j o O x l i <.bX2.2.@...o.rX&.* X r.nX-.8 | e.w.zXAXIXIXLXZ.+X].|.}.XX-X6X6X5X5X",
"$ # # X * * = ; = q q 9 9 r 9 $ @ $ # = d d g c :   o v v a b t.1.5.#...U.U.#.* ; y.vXe.P _ L.zXzXxXAXJXKXV.+X_.[.}.XX-X6X5X3X5X",
"$ # # # = ; = ; ; q 0 q r 0 $ @ @ $ @ # d d * * o   o k b v < <.i.tX .%.U.&.@.X : y.MX=.D } u.p.zXxXxXK.@.~ N.{.{.{.|.XX6X6X6X3X",
"* # # * = ; ; q q q r r 9 3 @ + @ @ # . d ! $         O > M > v y.mX%.&.J.%.n X < a.t.g J } t.zXp.*.> > i ' c.+X#X#XXXXX;X6X6X3X",
"= # = ; ; ; q ; q q q r 3 + + @ + @ + + q ..s . X X .   % V v , :.nXq.&...+ X : < O @ 5 D 0.u.*.: o % O b ' z.I._.}.XX=X:X;X>X>X",
"* # * ; ; ; q q s q 0 $ @ @ @ @ + + + + q ! ..# . . . # b b V l v 8.#.&.#.+ + > > - 1 4 P 0.z o : o O , i ' z.I.).|.&X&X-X,X,X9X",
"= # = ; = ; q q r q 3 + + @ @ + @ + & @ $ T %.3 $ + % i 3.M [ V b X =  .@.+ 5 5 5 5 6 8 P D & % O . @ 5 p ~ M.~.W.].&X X-X,X,X*X",
"= # q ; * = e q = # + @ @ @ @ + @ + & @ 1 t %.s @ 5 3 f <.,.- b n . X # ! 8 D D D S D S P 7 @ % + # 8 H U G.N.[.|.`.|.oX;X;X,X;X",
"* # e = # ; ; $ @ + + @ @ @ @ @ + + 1 @ 1 4 E ~ 1 p @.9.w.r.8., ;   % , 4 A H H F F F F I A $ # 9 8 H Y s.g.D.$X9XXX|.XXoX;X&X6X",
"= = q * # ; # . . + @ @ @ @ & @ + @ 1 1 2 1 8 ~ 2 5 p p [ <.V - - . O v 2 A F G G F F G I H 2 5 D H Y U d.g.x.%X9XOX!.oXoXoX;X6X",
"= = ; # . # . . . + @ @ + @ @ @ @ + @ 5 1 2 4 T 8 2 5 @ b ] i . # %   l p D S G F F F F I I 7 8 S G I s.s.f.x.%X9XqX!.OXoX X;X;X",
"= = = # X . . . + + @ @ @ @ & @ + + @ 2 1 2 2 2 8 5 5 5 & . . . . O : , p 7 S F F F S G I I S S F I U U s.d.h.@XwXqX0XOXoXoXoXoX",
"9 9 = $ +   . + + + + + @ @ @ @ + + @ 2 2 2 2 2 6 6 1 & O   . . .   : < { 2 D S S D S F U I F S F G U s.s.d.g.F.wXqXOX`.'.oXOXoX",
"q 9 = = + . . + + + + @ @ @ 1 @ + + @ 1 2 2 2 6 8 L -.e.8.y.bX3.> . o < b 6 7 A S H A F I I G S F G U U s.d.f.x.XXqXqX`.'.oXoXoX",
"e 9 = = + . . . + + @ @ @ @ @ + + + 1 1 1 2 2 5 8 L -.3.8.5.t.C : > : < p p 6 A D D S F G U I F H F U U d.d.d.g.!.qXqXOX'.'.'.OX"
};
