/* XPM */
static char *bb98fb65024f4f0b9a639bfec51138182R8REcoUz8eL3Vjh[] = {
/* columns rows colors chars-per-pixel */
"64 64 230 2 ",
"   c #040201",
".  c #0B0503",
"X  c #0D0806",
"o  c #06080D",
"O  c #0D0A0A",
"+  c #05060A",
"@  c #110704",
"#  c #150A05",
"$  c #1A0D06",
"%  c #120D0B",
"&  c #1D0E08",
"*  c #15100E",
"=  c #1D110A",
"-  c #040B15",
";  c #0A0E16",
":  c #0B0F18",
">  c #030C19",
",  c #0D121A",
"<  c #0C1115",
"1  c #141213",
"2  c #1A1514",
"3  c #1C1916",
"4  c #11151E",
"5  c #1E1A1A",
"6  c #19181B",
"7  c #210F08",
"8  c #231209",
"9  c #2A160B",
"0  c #2A1407",
"q  c #361909",
"w  c #221D1B",
"e  c #281A16",
"r  c #351E13",
"t  c #1A241B",
"y  c #3C2212",
"u  c #37241B",
"i  c #29201C",
"p  c #0C1723",
"a  c #131720",
"s  c #151A22",
"d  c #1A1D25",
"f  c #161D29",
"g  c #2A1D22",
"h  c #1D2026",
"j  c #1D222A",
"k  c #142B27",
"l  c #193328",
"z  c #22252C",
"x  c #25282F",
"c  c #222225",
"v  c #252930",
"b  c #392D25",
"n  c #4C1906",
"m  c #511C0B",
"M  c #4C2508",
"N  c #482817",
"B  c #542C1A",
"V  c #573218",
"C  c #592805",
"Z  c #693509",
"A  c #773404",
"S  c #65361B",
"D  c #712B12",
"F  c #462A24",
"G  c #4A3422",
"H  c #573324",
"J  c #542F20",
"K  c #6C3B21",
"L  c #643A22",
"P  c #733B24",
"I  c #711A0F",
"U  c #5A4027",
"Y  c #6E4D2A",
"T  c #6C4927",
"R  c #734225",
"E  c #7C4325",
"W  c #714D29",
"Q  c #7D492B",
"!  c #7C4628",
"~  c #75532D",
"^  c #79562D",
"/  c #7B5A2E",
"(  c #735127",
")  c #765631",
"_  c #785731",
"`  c #7C5B33",
"'  c #7D5D38",
"]  c #734C32",
"[  c #7F613A",
"{  c #77410E",
"}  c #5D5B54",
"|  c #54534E",
" . c #625D55",
".. c #615F58",
"X. c #656159",
"o. c #686259",
"O. c #7E6950",
"+. c #7F7F7A",
"@. c #861E12",
"#. c #873805",
"$. c #963505",
"%. c #882818",
"&. c #9C2C1A",
"*. c #952A18",
"=. c #87361E",
"-. c #9D311D",
";. c #973E15",
":. c #8C2D03",
">. c #A73B08",
",. c #B63E06",
"<. c #A12E1B",
"1. c #A6321C",
"2. c #BC371C",
"3. c #863C23",
"4. c #9B3823",
"5. c #A73924",
"6. c #B43C24",
"7. c #C43E01",
"8. c #984507",
"9. c #9A4416",
"0. c #8D4E14",
"q. c #A54607",
"w. c #B84806",
"e. c #BB5309",
"r. c #B65508",
"t. c #A74414",
"y. c #B64817",
"u. c #AC5511",
"i. c #BC650E",
"p. c #B86514",
"a. c #834526",
"s. c #844A27",
"d. c #844B2A",
"f. c #8B4D2A",
"g. c #894826",
"h. c #934E2A",
"j. c #924826",
"k. c #8E512D",
"l. c #865727",
"z. c #92532E",
"x. c #99552A",
"c. c #805E35",
"v. c #8C5636",
"b. c #945631",
"n. c #995731",
"m. c #9C5C33",
"M. c #975D38",
"N. c #8B4A30",
"B. c #AA532C",
"V. c #84633B",
"C. c #89673E",
"Z. c #846338",
"A. c #9B6339",
"S. c #A76526",
"D. c #BA6A24",
"F. c #A4643A",
"G. c #AB693E",
"H. c #A76539",
"J. c #B86F31",
"K. c #CA4405",
"L. c #C44608",
"P. c #C75808",
"I. c #CD5213",
"U. c #C5660C",
"Y. c #C56B16",
"T. c #C47727",
"R. c #C25320",
"E. c #836543",
"W. c #866944",
"Q. c #8A6A43",
"!. c #8A6D4C",
"~. c #86694A",
"^. c #996342",
"/. c #8D714C",
"(. c #92744C",
"). c #8C6F51",
"_. c #8C7151",
"`. c #947653",
"'. c #967954",
"]. c #957B5B",
"[. c #987B55",
"{. c #A96A42",
"}. c #B67246",
"|. c #B77B53",
" X c #B26E41",
".X c #957E62",
"XX c #9A7D60",
"oX c #83786B",
"OX c #C37947",
"+X c #D28533",
"@X c #9D8463",
"#X c #9B8465",
"$X c #85847D",
"%X c #A7896A",
"&X c #B28A6D",
"*X c #878680",
"=X c #888780",
"-X c #A9A79B",
";X c #ABA99D",
":X c #ACAA9E",
">X c #A8A497",
",X c #B9B6A9",
"<X c #BAB8AA",
"1X c #B7B4A6",
"2X c #CDBEA6",
"3X c #CBBEA9",
"4X c #C7B79F",
"5X c #CFC0A6",
"6X c #CDC1AA",
"7X c #D0C0A7",
"8X c #D1C3A9",
"9X c #CEC9B9",
"0X c #E3DBC7",
"qX c #E4DDCA",
"wX c #EAE3CE",
"eX c #E7E1CC",
"rX c #EBE5D1",
"tX c #EFE9D5",
"yX c #EEE9D4",
"uX c #F0EBD6",
"iX c #F0EBD6",
"pX c #F3EED9",
"aX c #F7F3DE",
"sX c #FBF6DF",
"dX c #F7F4E0",
"fX c #FBF6E0",
"gX c #FEF9E2",
"hX c #FFFAE3",
"jX c #FFFAE3",
"kX c #DED9C7",
/* pixels */
"_.[ ~.!.[ V.E.C.E.W.E.W.W.W.W.W.~.E.[ O.C.[ Q.!.W.W.W.V.Q.Q.V.!.(.(.(.(.[.`.(.[.(.(.[.'.Q./.].`.!.!.)._.!.!.!.~././.!.!.W.!.W.W.",
"!.) ~ ( T Y Y ~ ~ ~ ~ Y Y T Y ~ W W ) ~ ~ ~ ) ` / ` ` ` / ` ~ ~ ( ^ l.^ ^ c.c.c.^ ^ ` c.^ ~ ` ) Y Y Y Y Y ~ ) ^ ` ~ ^ ~ Y ~ ~ ` ",
"V.W.#X].].#X#X#X#X.X.X.X].].#X]..X#X#X#X@X@X%X%X%X%X%X%X%X@X@X@X@X@X@X@X@X@X%X@X@X@X@X@X@X@X@X].#X#X#X#X@X%X@X#X#X@X#X@X#X#XV.[ ",
"[ W.eXpXiXiXtXiXyXyXyXyXyXyXyXyXtXuXuXtXyXtXtXtXtXyXtXyXtXtXpXiXuXuXuXuXiXuXuXrXtXuXtXtXtXyXyXyXyXyXyXyXyXyXyXyXyXtXiXuXiXqX[ ^ ",
"[ E.eXpXiXpXiXaXsXsXjXjXjXfXjXjXgXjXgXjXgXjXjXjXjXjXjXjXjXjXjXjXhXjXjXjXsXjXjXjXjXjXjXjXhXgXhXhXgXgXhXhXhXhXhXhXjXiXuXuXaX0XE./ ",
"[ W.eXpXuXuXaX9X>X:X-X-X;X;X-X-X;X>X>X-X-X;X;X-X;X;X;X;X;X;X:X:X;X;X;X;X:X:X:X;X;X;X;X:X-X-X;X;X-X;X:X;X;X;X-X-X>X0XpXyXiX0XW./ ",
"[ E.qXpXuXyXhXoX. 3 1 1 p 4 p , , - : a , a a a , , , p p s 4 , 4 s a a 4 a , , a a a s - : 4 , , p , 4 a a a a - 1XhXyXaX0XE.C.",
"Z.E.eXpXuXyXhX$X4 x x z z h j v z j f v v z z v v v z z x x x j d x v v j j x x z v v v , d j j j j j z j v v v d 1XaXtXiX0XW.` ",
"Z.O.eXpXtXyXjX$Xa v z z j d j z j f z z f g z z z z z z d f v d , j j v v F v v f v z f 4 , a d d d d j f d x z s <XaXuXpX0XE.` ",
"Q.~.eXpXtXyXjX$X4 x z z z j j z j g z j j z z z z f g j a p j f c H 3.4.5.6.3.f f f f z a : s j f f j j d d d d d 1XsXyXpX0XE./ ",
"W.Q.eXpXtXtXjX$X, v z z z d s f d a g s f j s 4 f 4 a s g F P 4.5.6.B.5.-.5.6.P g > , f d , a j 4 < s f f g j z s 1XhXyXiX0XE.` ",
"Z.Q.rXpXtXyXjX$X, v j j d h s : : , - - > a , 4 : 6 J %.5.5.6.1.&.-.5.4.&.5.5.*.%.u > > , a , 6 , ; , a f j z d s ,XsXyXaX0XE./ ",
"Q.!.eXpXiXyXjX$X, z h s s 4 4 , : : ; : : : , a > J 2.<.<.5.-.-.&.-.-.&.*.&.-.%.%.3.H : ; : , : ; , s d j z z z s 1XaXyXiX0XE.` ",
"Q.(.wXpXiXyXjX*X, j , 4 a , - , : - : ; : : : , > D <.&.<.1.*.*.&.&.-.-.*.*.&.*.%.3.g.P g - ; ; ; , f j j z z z d <XsXyXpXqXE.~ ",
"C.(.wXpXiXyXjX*X, z : s h 4 4 : : 4 : : : : : : a @.@.*.<.1.*.*.&.&.-.-.&.*.&.&.3.d.a.N.g.F - ; < : : h z z z z s <XhXyXiXqXE.` ",
"C.(.eXpXtXyXjX$X, v a , h 4 h : : a ; - : : > > e @.@.*.1.<.I 3.4.@.*.&.&.&.&.&.3.N.N.a.f.n.H : - , a s d z z z d ,XaXrXaXqXE.` ",
"C.(.wXpXuXyXhX$X, v d , s 4 d , , , ; : , : : - N %.=.%.1.%.m g.=.%.&.&.&.-.h.-.3.a.a.a.k.k.h.P w - s , ; a d z d ,XfXyXiX0X~.` ",
"C.(.wXpXuXyXhX$X, z j , : ; a 4 - : ; ; - : : - V s.P @.1.I m z.%.%.-.4.*.4.z.k.a.a.a.d.k.f.d.g.3.u ; , ; ; 4 z s ,XfXrXaXqX~.` ",
"Z.(.wXpXtXyXhX=X: z s ; , s a , : : ; ; ; ; ; < P a.P %.1.P a.f.k.k.z.k.j.j.b.k.a.d.a.d.k.d.g.E E g.F - ; : : z d <XgXyXaXqX!./ ",
"C.(.wXpXuXtXhX=X: j s d s d 4 , : ; ; : ; ; - w a.a.a.s.d.k.h.f.k.k.z.k.z.r B f.g.N.g.f.f.g.a.a.E E J - , , s x s <XfXyXiXqX~./ ",
"Q.`.wXiXuXyXhX*X, j j d d d s , ; : ; : ; ; - N j.g.f.g.f.f.f.k.k.z.z.z.f.$ . 0 K g.g.f.f.a.a.a.a.P u - , , z z f ,XsXyXaX0X~.^ ",
"C.(.yXaXuXtXhX*X4 v 4 ; 4 s 4 ; ; ; : ; ; , > N S V B N K f.f.k.k.k.z.n.R . # X # a.g.N.f.g.g.a.a.=.e - : s z z s ,XsXyXiXqXW.( ",
"Q.(.rXiXtXyXhX=Xs j ; - - ; , ; : , ; ; ; ; ,   . .   . K f.f.f.k.z.k.n.V . # X 8 f.f.g.f.h.g.a.a.P 2 - ; s z z s <XsXyXaX0X~.^ ",
"Q.`.rXiXtXtXhX=X, d 1 o ; ; ; < ; ; : : : , ;   # X X 8 a.g.f.k.k.k.b.n.N . 3 1 y b.f.b.P a.h.g.g.P ; 4 4 4 z z s <XsXyXiXqX!.^ ",
"Q.[.wXiXtXtXjX*X, j , o < < : ; - , , - ; , o   $ = 8 9 9 ! h.f.k.b.b.z.9 . t l U n.f.b.y @ S a.f.L - 4 s d z z 4 ,XaXtXaXqX!./ ",
"Q.[.wXpXtXyXjX$X; z d ; < : < ; ; ; ; ; ; ,     $ 9 9 $ 8 f.k.z.z.z.f.b.R r t k R b.f.k.0 . . N h.N - : 4 s j z , ,XfXyXiXqX!.^ ",
"C.[.yXiXiXtXjX=X, z z 6 s , 4 , ; ; o ; , ;   . 8 0 r # y f.d.d.d.f.n.f.z.b.T b z.b.k.f.3 # . r h.r - ; , d z d , <XgXyXpX0X!./ ",
"Q.[.wXpXiXtXjX=X4 z j s 4 4 , , ; ; o ; O +     X # X = 0 8 9 9 8 9 L b.n.k.n.R N f.m.W l t . B h.6 - ; , d j h a <XfXyXpXeX/.c.",
"Q.`.wXpXpXyXjX$Xa j a s , : : , ; o o o .             0 8 # & $ 7 & & 9 K k.n.S   8 S U k 3 . K a.4 : ; < s h d a <XsXyXaX0X_.Z.",
"Q.(.wXpXuXyXjX=X< , , a : - : , < ; o X . .     .   . 0 = & = 8 7 7 7 # . R m.y . $ . B b X . a.L > : : < 4 d h d <XsXyXiXeX(./ ",
"Q.`.wXpXuXwXjX$X- 4 < , 6 w 1 > - - > +     .       . 8 0 8 8 = 8 8 & & & d.b.R q # # K z.V r f.J > , 4 - 4 h z f ,XsXyXpXqX!.[ ",
"Q.`.wXpXuXyXjX$X, h < - V T.S.0.A V y w #               8 8 8 = 9 q 9 # 9 b.h.x.b.K q R g.f.f.b.u - 4 , O d d h 4 <XdXyXpXqX(./ ",
"C.`.rXiXtXtXjX=X4 j h p ( +XT.p.U.U.U.e.q.$.A n         0 8 8 = 9 q 8 # B F.z.b.z.n.z.g.a.d.f.h.w - 4 , s j h z s ,XaXyXpXqX).^ ",
"C.`.wXpXtXtXjX$X4 j 4 < 0.T.J.i.U.U.r.r.P.K.7.,.      . 9 $ # 8 9 9 8 # R OXR B k.z.f.x.N r a.s.4 > - - p k j z d <XfXyXpXqX!./ ",
"C.`.wXpXiXtXjX$X< j , 3 i.i.p.Z Z 0.r.w.r.L.7.7.n   .   M l.V 8 # # & & M.OXN   R H.f.d.D $.q.u.0.0.0.l.A.T k 4 : ,XfXyXiXqX_.` ",
"C.'.wXaXtXyXjX$X4 x t b i.i.u..     >.K.,.Z C $.q   X   V S.D.z.L N 7 X L F.r X v.}.u.Z n K.e.e.P.U.U.T.+XA.d h a ,XgXrXaXqX)./ ",
"C.'.wXiXiXtXjX$X4 x - V U.U.0.    & w.L.,.@     . . @   T H.b.b.m.m.z.T y r @ 8 G.J.r.7 n K.w.e.r.i.i.D.T.S.h j 4 1XsXyXiXqX!.^ ",
"C.@XrXiXtXyXjX=X4 j , { P.P.A     q 7.L.>.@ . @ . . .   V }.G.k.s.s.l.k.H.F.! # B x.#.  @ q w.K.#.= 8 0.Y.S.h h 4 <XsXyXaX0X).^ ",
"C.(.wXpXiXyXjX$X, h 4 u.P.P.n     C P.L.#.  . . . . @   S J.H.k.s.s.d.s.M.}.A.    . # .   # w.K.:.    Z Y.D.i 4 4 <XaXyXpXqX!.^ ",
"C.@XwXpXiXyXjX$X4 f i e.U.P.0     A e.P.A   . . . @ @ # $.e.u.k.g.s.d.d.B.p.x.@ . . . . . # q.K.$..   C Y.p.b k 4 ,XaXyXaXeX!.( ",
"Q.@XwXpXiXyXsX$X, f r A Z #.# .   8.P.P.C   @ . . . @ $ q.P.q.m.G.H.G.A.0.w.w.q @ # @ .     q.P.q..   C P.Y.G f 4 1XhXyXiXqX_.~ ",
"C.'.yXiXiXyXjX$Xo < , < +     X . q C A q . . . . @ @ $ q.w.q.m.G.G.G.G.8.P.L.q @ $ . .     $.P.q.#   q P.I.V p s <XaXyXaX0X_.^ ",
"C.[.wXpXtXtXjX$X+ 4 s 3 X .   .           . . . . . . . q M M A.H.H.G.G.Z :.#.0 @ # . .     #.P.r.7   0 e.U.Z > 4 <XfXyXaXqX!.~ ",
"C.@XrXiXtXtXjX$X: c h w * .           . . . . . . X .   S f.d.s.d.f.l.z.S V r   . . . . . . $ 0 7 .   . $ B N p 6 <XfXtXiXqX!.Y ",
"Z.'.rXpXiXyXsX$X; 4 O * X       .   .   . X X . .       T d.s.d.d.s.s.s.d.b.S   @ . . .   .               o j z d <XaXyXaXeX!.~ ",
"Z.[.rXpXiXtXjX$X; z 1 . . O       .     X X . . . 0 r n t.t.9.d.d.s.s.s.s.j.S     . . . . . X           . + s j d <XsXyXiXqX!.Y ",
"Z.'.rXpXiXyXjX$X< c w 3 X     .       . X   . .   R v.9.7.7.;.F.F.F.H.A.>.L.,.M r $ . .   .             . O f z d ,XhXyXaXqX_.~ ",
"V.'.rXiXiXtXjX$X< h w 3 X X   O X     .   . . X . R z.t.K.K.9.G.H.G. XA.$.K.w.g.h.9   . .     .         1 1 d z s ,XaXtXiXqX!.Y ",
"Q.].rXpXiXtXjX+.- h 5 3 * % O + X   X .   . . X @ N V D $.:.3.{.H.{.}.A.$.7.L.k.k.9   . .     . .     < 1 * s h , 1XsXuXpXqX_.W ",
"Q.`.rXpXiXrXjX*X- 5 w w 2 X O X O +   . . . . # * O   2 L L P f.k.z.v.N.S S D y N $ . X . .   . . X % 1 2 2 6 z s <XaXyXpXqX!.W ",
"Q.`.wXpXuXtXjX*X; 5 w w 3 *   + . + . . @ . . * * * . r a.a.a.a.! R ! ! E s.N       . . . . .   X + o 2 w 3 5 z 4 <XsXyXaXqX).T ",
"~.'.rXpXuXtXjX=X4 c 3 w w 3 * X % 2 % X % . * 2 * * + y a.Q Q P Q Q Q d.Q d.J ; * X X . % % .   * O O 1 3 w w z 4 1XsXuXiXeX!.( ",
"V.[.rXpXtXyXjX=X4 c w 5 2 % 2 * 6 2 w e % % 3 2 u W L j.y.y.b.^.^.M.^.v.j.B.P g i 5 w 6 * * . X * * 2 1 3 w w h 6 1XsXyXaXqX).~ ",
"Z.].rXuXtXyXjX*X4 w 5 w % X 2 % 1 2 2 2 & 2 w 2 F v.v.y.L.,.^.|.|.|.|.^.y.I.y.v.d.u 5 3 O O . * < 3 5 5 5 5 w d 4 1XgXtXiXeX~.~ ",
"E.].wXpXuXyXgX=X4 w w 5 3 3 2 1 2 5 2 2 w 3 w 6 G M.v.y.I.R.{.|.|.|.|.^.y.R.y.v.v.b w w 2 1 * 3 1 3 5 w w t w z s <XaXtXiXwX~.( ",
"Q.'.rXpXuXtXjXoX  * O . % X . X X . . % % % % % r J J 9.y.t.M.{.{.{.}.M.>.I.y.! ! e O % X O .   + O O * % % O a - 1XgXtXpXqX!.W ",
"Z.].wXiXiXiXaX-X| .. .}  . . . .} }  . . . .o. .} } } .X&X%X&X%X%X&X&X%X%X&XXXoXoX . .o. . .} } X.X.X.X.X...X.X.} 9XaXtXpXqX!.~ ",
"Z.'.rXaXiXiXiXaXjXjXhXhXhXgXjXjXjXjXhXhXhXhXhXhXjXjXjXfXdXfXdXaXdXdXdXdXfXdXaXaXfXhXhXhXhXgXhXhXgXjXgXjXgXjXgXjXjXpXiXiXaXqX!.~ ",
"' '.rXiXiXiXiXtXyXyXyXyXyXyXyXyXtXtXrXyXyXyXyXyXtXtXrXtXuXyXyXuXtXtXtXtXyXyXrXtXuXyXyXyXrXyXyXyXyXyXyXyXyXyXyXyXtXuXiXiXpXqX!.( ",
"` `.wXiXyXtXtXtXtXtXtXtXyXuXtXtXtXtXtXtXyXuXyXyXtXuXtXtXtXtXuXtXtXtXtXuXyXtXtXtXyXyXtXtXyXyXtXuXyXyXtXyXyXyXtXtXtXtXtXtXpXqXQ.( ",
"' `.pXdXdXdXdXdXaXaXaXdXaXdXdXdXdXdXdXdXdXfXaXaXdXdXdXdXaXaXfXfXdXfXdXfXsXfXfXdXdXaXdXfXdXaXaXaXaXdXaXaXaXaXaXdXaXaXdXaXfXrX~.W ",
"E.`.3X3X3X6X3X6X6X3X6X3X2X5X6X5X5X5X5X3X2X2X2X2X3X3X3X2X2X2X2X2X2X2X8X2X2X2X2X2X8X5X5X2X7X5X8X5X6X8X8X6X5X8X8X7X7X5X5X7X8X2X~._ ",
"E.E.' ] ) ` ` ` ` ` ` ` ' [ V.V.V.[ ' ` ' ' ' ` ^ ` ^ ^ c.` c.` c.c.` ^ ` ` v.c.` c.` ` Z.` Z.` ' [ Z.Z.` ` ` ' c.` ' ` ` c.Z.^ ",
"' ) ` ` ` ) ) ) ) ~ ~ ` ` ` Z.' ` ` ~ ~ ~ ~ ) ` ~ ~ _ ~ ) W ^ ) _ ^ _ ^ _ ) ` ` ~ _ ` _ ` ` ` ` ) _ ` ` ` ` ^ ` c.' ' ` _ _ ~ ~ "
};
